<mxfile host="app.diagrams.net" modified="2023-09-06T03:15:39.236Z" agent="Mozilla/5.0 (Windows NT 10.0; Win64; x64) AppleWebKit/537.36 (KHTML, like Gecko) Chrome/116.0.0.0 Safari/537.36 Edg/116.0.1938.69" version="21.7.2" etag="DKj5x4B8CqXPS2WP_QmR" type="github">
  <diagram name="第 1 页" id="yQ4KO87JT2s5S2anVl1d">
    <mxGraphModel>
      <root>
        <mxCell id="0" />
        <mxCell id="1" parent="0" />
      </root>
    </mxGraphModel>
  </diagram>
</mxfile>
